inDegrees=no
num_controls=7
num_derivatives=13
num_iterations=170
num_multipliers=7
num_parameters=0
num_slacks=7
num_states=26
objective=0.477010
objective_accelerations=0.044293
objective_balance=0.003612
objective_effort=0.040419
objective_height=0.383025
objective_ligament=0.005661
solver_duration=2338.456786
status=Solve_Succeeded
success=true
DataType=double
version=3
OpenSimVersion=4.5
endheader
time	/jointset/ground_pelvis/pelvis_tilt/value	/jointset/ground_pelvis/pelvis_tx/value	/jointset/ground_pelvis/pelvis_ty/value	/jointset/hip_l/hip_flexion_l/value	/jointset/hip_l/hip_adduction_l/value	/jointset/hip_l/hip_rotation_l/value	/jointset/back/lumbar_extension/value	/jointset/patellofemoral_l/patellar_flexion_l/value	/jointset/knee_l/knee_flexion_l/value	/jointset/knee_l/knee_adduction_l/value	/jointset/knee_l/knee_rotation_l/value	/jointset/ankle_l/ankle_angle_l/value	/jointset/subtalar_l/subtalar_angle_l/value	/jointset/ground_pelvis/pelvis_tilt/speed	/jointset/ground_pelvis/pelvis_tx/speed	/jointset/ground_pelvis/pelvis_ty/speed	/jointset/hip_l/hip_flexion_l/speed	/jointset/hip_l/hip_adduction_l/speed	/jointset/hip_l/hip_rotation_l/speed	/jointset/back/lumbar_extension/speed	/jointset/patellofemoral_l/patellar_flexion_l/speed	/jointset/knee_l/knee_flexion_l/speed	/jointset/knee_l/knee_adduction_l/speed	/jointset/knee_l/knee_rotation_l/speed	/jointset/ankle_l/ankle_angle_l/speed	/jointset/subtalar_l/subtalar_angle_l/speed	/forceset/tau_hip_flexion_l	/forceset/tau_hip_adduction_l	/forceset/tau_hip_rotation_l	/forceset/tau_knee_flexion_l	/forceset/tau_ankle_angle_l	/forceset/tau_subtalar_angle_l	/forceset/tau_lumbar_extension	lambda_cid13_p0	lambda_cid13_p1	lambda_cid13_p2	lambda_cid13_p3	lambda_cid13_p4	lambda_cid13_p5	lambda_cid14_p0	/jointset/ground_pelvis/pelvis_tilt/accel	/jointset/ground_pelvis/pelvis_tx/accel	/jointset/ground_pelvis/pelvis_ty/accel	/jointset/hip_l/hip_flexion_l/accel	/jointset/hip_l/hip_adduction_l/accel	/jointset/hip_l/hip_rotation_l/accel	/jointset/back/lumbar_extension/accel	/jointset/patellofemoral_l/patellar_flexion_l/accel	/jointset/knee_l/knee_flexion_l/accel	/jointset/knee_l/knee_adduction_l/accel	/jointset/knee_l/knee_rotation_l/accel	/jointset/ankle_l/ankle_angle_l/accel	/jointset/subtalar_l/subtalar_angle_l/accel	gamma_cid13_p0	gamma_cid13_p1	gamma_cid13_p2	gamma_cid13_p3	gamma_cid13_p4	gamma_cid13_p5	gamma_cid14_p0
1	-0.1073428608879947	-0.05783825866999538	0.6820982776455928	1.324949864787381	-0.3280472340589463	0.07259163114164982	-0.9599310426629903	1.400945514234838	1.400945514234739	-0.06510719654103152	-0.1745325922162	0.2813394303189813	0.0658575817719885	0.1039113152171689	0.02577645592534505	0.07013950117553167	-0.2996880938574481	-0.007357840795483532	-0.06545208958236894	-0.0001321057682447618	-0.1607328070952217	-0.1607328070952168	-0.001777895366938955	-1.10223615231399e-05	0.02624377160216546	0.002934717147284864	-0.3719654190073211	0.01588890495937084	0.001425986770131545	-0.3774282196304838	0.03610010616354637	0.02645073484250516	0.4252260724158361	-39.62282261884418	-3.633353793382264	-0.9219504931292419	14.18367022428436	-800.0249528263369	-70.43746565346018	-0.04152898138137964	0.8207132844420453	-0.0176059196098396	1.548486993275338	-4.968936780928166	-0.1269286736161767	-1.667312899899772	0.01025817466528002	-5.020058861877411	-5.020058861877909	-0.3565386302589315	-0.01690915294481284	-1.228855324030415	-0.6852283862915369	-8.782660262385686e-09	2.043222957083773e-08	6.450425473760699e-08	5.791647917571857e-09	-2.332265604156481e-08	1.273891387919763e-07	-1.697885081368416e-08
1.01	-0.1062631094144033	-0.05758130796023658	0.6828768508241885	1.321705496417389	-0.3281263996519728	0.07185294276915979	-0.9599310885968813	1.399087655504951	1.399087655504932	-0.06514086267683018	-0.174532604103095	0.2815405705658724	0.06585375774203056	0.1120364209538732	0.02562115785909526	0.08556074000588108	-0.3491553279258418	-0.008465908496414806	-0.08227648200143682	0.0001520767586546341	-0.210822210724683	-0.2108222107246791	-0.004951444601829062	6.789038928302775e-06	0.01397481845418141	-0.003691297859406402	-0.3711754926899174	0.01606365014288892	0.001348552849104083	-0.3771168767102417	0.03595591622399984	0.02660165281886802	0.4248707495664011	-39.62653071235029	-3.713523741396038	-0.8917208166518212	14.02868147683865	-799.5941894501192	-70.508435125906	-0.04156264725372671	0.8080233217418739	-0.01336833248396686	1.536777209014676	-4.931081793223479	-0.1013481402476918	-1.688654802609837	0.04188440568357444	-5.000867213916926	-5.000867213916789	-0.2971912256675736	0.01087080344129586	-1.227334308413231	-0.6500673672974617	-1.572227893096978e-08	1.350854863007649e-08	9.369192886735456e-08	1.313953290035535e-08	-2.962752578724001e-08	1.476468642192371e-07	-2.331567850899307e-08
1.02	-0.1051021840627534	-0.05732568554761056	0.6838092033673075	1.317967362692028	-0.3282163663863916	0.0709462799945397	-0.959927416312624	1.396729405518682	1.396729405518743	-0.06520614993609025	-0.1745324889726119	0.2816187374816376	0.06578391770011779	0.1201460908288682	0.02551079649878887	0.100895374080229	-0.3984411649313759	-0.009518069073990089	-0.09904697000848635	0.0006117038448056712	-0.2608110583716022	-0.2608110583715974	-0.008102120059259978	1.43811154266287e-05	0.001649105376964018	-0.01026848524367934	-0.3703855663725071	0.01623839532640896	0.001271118928076512	-0.3768055337899993	0.03581172628445264	0.02675257079523323	0.4245154267169717	-39.64183960572561	-3.790253641814584	-0.8636489289474046	13.93282782231306	-799.3110100994502	-70.55451452856329	-0.04159709163184883	0.8176261121002032	-0.008618578421164057	1.53116604207504	-4.932657368356258	-0.1157472489449788	-1.656532017496098	0.04534708651558482	-4.99994766536901	-4.999947665369101	-0.351963874767093	-0.01895301773543797	-1.240207309877085	-0.6754628618078733	-2.303778758234726e-08	4.47735933004061e-09	1.219646479463331e-07	2.039905254156142e-08	-3.677878061201043e-08	1.654641283495838e-07	-2.964441677145898e-08
1.03	-0.1038607436431852	-0.05707068796539211	0.6848944472387889	1.313737519499637	-0.3283165509571461	0.06987225635168112	-0.9599162347762504	1.393871807018895	1.39387180701893	-0.06530285825022665	-0.1745322972019512	0.2815736820743233	0.06564873831816122	0.1280898040259827	0.02552191601887873	0.1161370724914089	-0.4474750727775229	-0.01050954100994196	-0.1157452577109255	0.001856952445777829	-0.3106890846642749	-0.3106890846642717	-0.01123849986062282	2.210690733113313e-05	-0.01063805926299835	-0.01674383400086031	-0.3711020072915217	0.01654850316133854	0.0011538557675877	-0.3760271448058342	0.03556926382616993	0.02701582431746168	0.4259745520678136	-39.72054393553663	-3.919428211163929	-0.8103592732366457	13.37890108153718	-799.9744884535587	-70.60515086426064	-0.04163852968590339	0.7749130249089796	0.01096220384369588	1.518213750815871	-4.880901249318573	-0.08946551772766119	-1.674630650944364	0.198966099097775	-4.978789340021911	-4.978789340022098	-0.2943371209454287	0.01039042034859085	-1.219653754240439	-0.6300540810524131	-3.035713184579406e-08	-4.575335157334822e-09	1.502280307492834e-07	2.765767049560854e-08	-4.39386720192206e-08	1.832564898136353e-07	-3.597307248869179e-08
1.04	-0.1025414322713676	-0.05681458219064883	0.6861316164964173	1.30901890847747	-0.3284263739176217	0.06863161913093321	-0.9598856302834178	1.390516016410421	1.390516016410431	-0.06543090278000162	-0.1745320771648312	0.2814064184779725	0.065449508808957	0.1357202812787739	0.02573243500375385	0.1312804513096456	-0.4961947308866564	-0.01144574701818892	-0.1323696855864264	0.004496295135139725	-0.3604494801091684	-0.3604494801091666	-0.0143693631869675	2.003440704339798e-05	-0.02279253243034584	-0.02307851069320952	-0.3718184482105368	0.01685861099626892	0.001036592607093818	-0.3752487558216693	0.03532680136788757	0.02727907783969143	0.427433677418655	-39.81106858573872	-4.045081822038306	-0.759288822371182	12.88258750857696	-800.7894330667644	-70.63135837933955	-0.04167926564104506	0.7549789232355286	0.03126131453588823	1.511502123486395	-4.86980742095357	-0.1046940634039998	-1.641760052108469	0.3241659041935111	-4.976421495813169	-4.97642149581322	-0.3508605797634625	-0.02091267617389348	-1.213669015354111	-0.6473284488415264	-3.45382103066028e-08	-1.564483764035718e-08	1.768658750653002e-07	2.847236047962462e-08	-4.939532468606843e-08	1.916672212477417e-07	-4.144222238213748e-08
1.05	-0.1011472169235468	-0.05655541453479396	0.687519652255671	1.303814736792237	-0.3285452485051555	0.06722520792038209	-0.9598222401227723	1.386663326030211	1.386663326030219	-0.06559025657837633	-0.1745319260029675	0.2811181659251563	0.06518764594077966	0.1430851767785524	0.02613025676877099	0.1463025671701594	-0.544578717017423	-0.012315137878814	-0.1488940213538603	0.008358868475191222	-0.4100574978496787	-0.4100574978496779	-0.01749770501215179	1.0366854358123e-05	-0.03484638165500641	-0.02926763094185334	-0.3717595977996891	0.01714594773607981	0.0008872577553915917	-0.3742883297833917	0.03531960838356259	0.02759573341642754	0.4281130142609104	-39.77731778537083	-4.222980856994005	-0.6915583215428946	12.36541192772897	-800.8409644397881	-70.7127598931786	-0.04173554463712126	0.7215998200556536	0.0484225210440632	1.493935297362484	-4.813565707477032	-0.07597750680888495	-1.655028116277912	0.4438727710725738	-4.948317768839914	-4.948317768840053	-0.2932919085984868	0.009077248057830712	-1.199506042781982	-0.6007585392826087	-3.862121796107912e-08	-2.67773653732435e-08	2.034529213036003e-07	2.908567771457726e-08	-5.479875114227995e-08	1.997847767434123e-07	-4.688451271858981e-08
1.06	-0.09968048162938711	-0.05629139267857702	0.6890571829695356	1.298128550946029	-0.3286724001831791	0.06565410179671315	-0.959714910284293	1.382315490301463	1.382315490301469	-0.06578078797994363	-0.1745318573080544	0.2807097222467415	0.06486468092483451	0.1502242705465968	0.02670327507616577	0.1611794422318184	-0.5925975630817429	-0.01310116511612397	-0.1653086682099768	0.01328423070170721	-0.4594785498169876	-0.4594785498169878	-0.02060488382543903	3.541016619838053e-06	-0.04683075755006513	-0.03529894024676916	-0.3717007473888416	0.0174332844758906	0.0007379229036855577	-0.3733279037451143	0.03531241539923761	0.02791238899316358	0.4287923511031658	-39.75551949997035	-4.397309294216016	-0.6260852135241085	11.90378547048527	-801.0463820312193	-70.77126732790201	-0.04179030488221632	0.7098185768886863	0.06630062301141608	1.482453963715436	-4.796779407664233	-0.08802133874097851	-1.619822269844999	0.5367236814864059	-4.939028341172915	-4.939028341172913	-0.346627977384052	-0.02034433318449679	-1.199774349433742	-0.6157662600959284	-4.35943616109945e-08	-3.899852416561446e-08	2.269951751461988e-07	3.115338315920995e-08	-6.062812021654598e-08	2.059576289771192e-07	-5.203301393975055e-08
1.07	-0.09814345005162307	-0.05602073400649026	0.6907427052921092	1.291964048540788	-0.3288069728920263	0.06391948649600274	-0.9595529862021935	1.377474450926053	1.377474450926031	-0.0660023297460523	-0.1745318420062233	0.2801817803931102	0.06448223095812428	0.1571467046735247	0.02746076997339202	0.1758957376319765	-0.6402367701493754	-0.01379663928419935	-0.1815926937266097	0.01928209013996332	-0.5086915082932896	-0.5086915082932907	-0.02369856166164302	-3.583710980294613e-08	-0.05874602451087915	-0.04115994553492192	-0.3714487748360695	0.01774269900465823	0.0005560122425798396	-0.3721015553183121	0.03541108701608314	0.02830083277520554	0.4293343282243271	-39.67227266508753	-4.623039528680809	-0.5416058190539739	11.33265929998168	-800.926791741191	-70.87522225582634	-0.04185686740267081	0.6781508181286832	0.08532720792941728	1.461811251742841	-4.737574993373647	-0.05782607925503355	-1.629485236987058	0.6585427382574338	-4.906745549329841	-4.906745549329973	-0.2900323530597533	0.009757406641272188	-1.18566853246162	-0.566622617653098	-4.861485292024175e-08	-5.127758886540483e-08	2.503754719464726e-07	3.329844967882563e-08	-6.648014581304895e-08	2.120270395479556e-07	-5.716588808031066e-08
1.08	-0.09653825513508317	-0.05574152972846097	0.6925745093533997	1.285325137337457	-0.3289480034672371	0.06202267243124315	-0.9593256383930588	1.372142418776185	1.372142418776136	-0.06625466722378741	-0.1745318381193082	0.2795350327372595	0.06404209994763688	0.1638569383018066	0.02841239626466594	0.1904357899752092	-0.687479322699444	-0.01439273838884339	-0.1977484210198279	0.02636897610870858	-0.5576771047084321	-0.5576771047084341	-0.02676402615069416	1.258033499361983e-06	-0.07059191799394871	-0.04683514900220061	-0.3711968022832975	0.01805211353342601	0.0003741015814700035	-0.3708752068915101	0.03550975863292875	0.02868927655724781	0.4298763053454882	-39.60119901511137	-4.845082852162461	-0.4594910968422397	10.8151345568406	-800.9645500808091	-70.95789377186702	-0.04192071032628428	0.6673784771594899	0.1051269018209502	1.447205352330355	-4.717448504151471	-0.0681463260547093	-1.594162625162078	0.7545289875842338	-4.893555928941035	-4.89355592894107	-0.3409853079534809	-0.01937018831673537	-1.185899653884847	-0.578605895921113	-5.293242308713125e-08	-6.400044507098608e-08	2.698100101036488e-07	3.431163944088795e-08	-7.141193008651151e-08	2.13595262777848e-07	-6.152999314109972e-08
